PathFileType	4	(X/Y/Z)	C:/Users/opensim2020/Desktop/walking_exp_matlab/subject02_walking12_straight_02.trc																																																																																																																												
DataRate	CameraRate	NumFrames	NumMarkers	Units	OrigDataRate	OrigDataStartFrame	OrigNumFrames																																																																																																																								
100	100	4	42	mm	100	1127	149																																																																																																																								
Frame#	Time	LFHD			RFHD			LBHD			RBHD			C7			T10			CLAV			STRN			RBAK			LSHO			LUPA			LELB			LFRM			LWRA			LWRB			LFIN			RSHO			RUPA			RELB			RFRM			RWRA			RWRB			RFIN			LASI			RASI			LPSI			RPSI			LTHI			LKNE			LTIB			LANK			LHEE			LTOE			RTHI			RKNE			RTIB			RANK			RHEE			RTOE			*39			*40			*41		
		X1	Y1	Z1	X2	Y2	Z2	X3	Y3	Z3	X4	Y4	Z4	X5	Y5	Z5	X6	Y6	Z6	X7	Y7	Z7	X8	Y8	Z8	X9	Y9	Z9	X10	Y10	Z10	X11	Y11	Z11	X12	Y12	Z12	X13	Y13	Z13	X14	Y14	Z14	X15	Y15	Z15	X16	Y16	Z16	X17	Y17	Z17	X18	Y18	Z18	X19	Y19	Z19	X20	Y20	Z20	X21	Y21	Z21	X22	Y22	Z22	X23	Y23	Z23	X24	Y24	Z24	X25	Y25	Z25	X26	Y26	Z26	X27	Y27	Z27	X28	Y28	Z28	X29	Y29	Z29	X30	Y30	Z30	X31	Y31	Z31	X32	Y32	Z32	X33	Y33	Z33	X34	Y34	Z34	X35	Y35	Z35	X36	Y36	Z36	X37	Y37	Z37	X38	Y38	Z38	X39	Y39	Z39	X40	Y40	Z40	X41	Y41	Z41	X42	Y42	Z42
																																																																																																																															
112	1.11	523.85687	1729.14929	-1538.72888	488.79855	1702.47363	-1401.20288	391.39966	1671.55603	-1581.86389	346.10214	1645.40039	-1447.06128	311.72983	1524.85327	-1521.94531	258.55307	1245.61792	-1525.43103	450.02426	1455.70374	-1521.42456	502.18863	1284.54956	-1514.67017	246.34383	1345.8064	-1468.77356	397.86981	1506.52917	-1693.16541	437.83267	1324.03943	-1802.47156	489.0224	1196.36035	-1840.9939	559.87885	1085.6001	-1864.63074	664.47247	997.41864	-1837.88806	625.24829	982.23981	-1875.63843	673.9743	939.2785	-1885.61206	369.24799	1481.849	-1331.12146	328.07309	1291.62866	-1254.39197	341.82867	1143.89404	-1236.19983	377.08804	1027.44104	-1222.97644	434.61597	905.9671	-1248.02185	388.21567	897.37952	-1215.94836	430.56741	837.98041	-1216.62329	491.91238	987.43042	-1654.92358	490.12625	976.24481	-1401.0166	281.71066	1029.84326	-1573.64624	275.50671	1028.55481	-1458.57837	405.11743	675.40784	-1701.10266	353.87888	476.37872	-1673.1759	278.25928	295.71869	-1677.07629	259.45444	72.58053	-1641.93054	219.63742	45.7509	-1592.89185	415.15247	31.80056	-1649.33557	483.80521	683.27301	-1309.38989	545.96948	485.35925	-1332.17041	487.85532	306.37045	-1343.79944	460.508	118.06974	-1388.64307	442.47073	64.9605	-1455.18103	593.19153	51.67252	-1336.02783	411.43286	1801.55493	-1468.18225	-2845.97583	1034.33081	3357.35938	NaN	NaN	NaN
113	1.12	535.87897	1727.52063	-1536.94751	500.18301	1700.63562	-1399.60303	403.66537	1670.24915	-1580.49695	357.55826	1644.03516	-1446.15515	323.24149	1523.67395	-1521.44495	269.77542	1244.41113	-1524.48657	461.5051	1454.21936	-1520.54858	513.38733	1282.97668	-1514.19873	257.31836	1344.41357	-1468.5697	410.14578	1505.81714	-1692.17688	453.14233	1324.86694	-1802.31543	507.30328	1198.89319	-1842.23608	581.75275	1090.41772	-1866.10364	689.18811	1005.9585	-1839.83582	650.47998	989.33142	-1877.30225	700.82855	948.06976	-1887.30737	380.26993	1479.91614	-1330.25171	336.85031	1289.60474	-1254.59888	348.4762	1142.12476	-1236.71936	381.88895	1025.01257	-1223.30652	438.09897	902.7934	-1248.07825	391.6813	895.02161	-1216.13477	433.23801	835.06787	-1216.50427	501.70715	985.33606	-1655.27502	501.91431	974.76599	-1400.45374	292.21771	1028.40686	-1572.11304	286.49408	1027.19495	-1457.30579	412.02786	674.46539	-1700.55798	358.55209	475.93414	-1672.59351	281.02185	296.0686	-1676.33582	259.77277	73.17813	-1641.54797	219.89589	46.17319	-1592.60229	415.28412	31.7218	-1649.41711	496.43121	682.25238	-1309.29102	559.5257	483.74509	-1334.36938	512.51123	301.02225	-1344.09302	497.46768	110.88902	-1387.24048	482.24835	56.578	-1453.62048	634.79767	53.42927	-1334.75391	423.33221	1800.06775	-1466.70837	-2845.15601	1034.34033	3360.23901	NaN	NaN	NaN
114	1.13	548.02069	1725.66272	-1534.83447	511.70877	1698.70422	-1397.88452	415.74219	1668.95313	-1579.27393	368.97934	1642.55505	-1445.21008	334.76309	1522.29309	-1520.7301	280.97787	1243.07349	-1523.46387	472.97195	1452.62219	-1519.54858	524.71082	1281.28589	-1513.58997	268.74176	1342.74634	-1468.01245	422.61572	1504.83069	-1690.84485	468.0528	1325.99646	-1802.55945	525.32336	1201.33887	-1843.15637	603.20416	1095.20825	-1867.24377	713.28143	1014.48767	-1841.30603	675.05786	996.38989	-1878.52368	726.6214	957.24481	-1889.12146	391.29736	1478.04077	-1329.505	345.80502	1287.9292	-1254.76086	355.78827	1140.32727	-1236.89148	388.17709	1022.81396	-1222.88696	441.87607	899.79486	-1247.91418	395.23495	892.68286	-1216.15759	435.94366	832.12036	-1216.34326	511.77191	983.24835	-1655.1803	513.39166	973.12305	-1399.72961	302.80087	1026.83093	-1570.59607	297.42902	1025.58008	-1456.09265	419.11081	673.55811	-1700.04944	363.35892	475.50156	-1671.90259	283.75848	296.62662	-1675.78577	260.19934	73.64603	-1641.05469	220.41727	46.94367	-1591.62305	415.37759	31.53407	-1649.44141	508.73834	680.70679	-1309.53845	572.24011	481.43958	-1336.96484	536.68335	296.18314	-1344.44287	534.44226	105.08249	-1385.11328	522.88757	49.49702	-1450.97363	675.89429	56.16601	-1332.94238	435.29831	1798.60449	-1465.26721	-2845.82568	1034.34253	3357.21753	NaN	NaN	NaN
115	1.14	560.1651	1724.03394	-1533.13208	523.09747	1696.55737	-1396.09827	427.82196	1667.52527	-1577.92139	380.50726	1640.95459	-1444.13123	346.30942	1520.81116	-1520.02356	292.36526	1241.52283	-1522.28674	484.49435	1450.8512	-1518.45654	536.06213	1279.50586	-1512.80945	280.0303	1341.17139	-1467.5376	434.68234	1503.91895	-1689.75769	482.84573	1326.64453	-1802.07568	543.06793	1203.67725	-1843.76855	624.14636	1099.93616	-1868.08276	736.64142	1022.94775	-1842.41675	698.90771	1003.3089	-1879.38977	751.98749	966.12073	-1890.17517	402.57666	1475.76892	-1328.06592	355.08951	1286.29553	-1254.59485	363.40814	1138.53394	-1236.9436	393.15125	1020.47333	-1223.28076	445.80716	896.77411	-1247.58313	399.05124	890.26764	-1215.97144	438.74173	829.10846	-1215.97791	522.14172	981.26416	-1654.70349	525.21881	971.47693	-1398.60901	313.52249	1025.15295	-1569.00818	308.4924	1023.6864	-1454.79712	426.43079	672.52039	-1699.54187	368.27917	475.15079	-1671.26843	286.56348	297.19522	-1675.14844	260.56644	74.30045	-1640.65808	220.72682	47.88746	-1591.0896	415.58255	31.46531	-1649.53833	520.62201	678.65479	-1309.83508	584.99194	479.43384	-1339.02063	560.29749	292.06076	-1344.73181	570.82648	100.47672	-1382.75195	562.46631	44.55539	-1448.15613	715.41882	59.51118	-1330.66162	447.28763	1796.8501	-1463.505	-2845.1543	1034.15649	3360.36987	NaN	NaN	NaN
